<?xml version="1.0" encoding="utf-8"?>
<svg width="1347.9998px" height="679.42175px" viewBox="0 0 1347.9998 679.42175" version="1.1" xmlns:xlink="http://www.w3.org/1999/xlink" xmlns="http://www.w3.org/2000/svg">
  <g id="Group-9">
    <path d="M473.94 32.9949C460.982 24.8421 445.182 20.0546 428.129 20.0546C394.603 20.0546 365.913 38.5619 354.157 64.7673C360.248 63.3234 366.646 62.554 373.246 62.554C396.26 62.554 416.829 71.9114 430.447 86.6007C436.608 64.0641 452.51 44.9406 473.94 32.9949L473.94 32.9949ZM285.393 149.305L686.617 149.305C682.828 84.4307 629.018 32.9905 563.193 32.9905C505.056 32.9905 456.291 73.117 443.082 127.185C425.935 106.487 400.037 93.3017 371.059 93.3017C332.758 93.3017 299.838 116.335 285.393 149.305L285.393 149.305Z" id="Sand-2" fill="#FFB85B" fill-rule="evenodd" stroke="none" />
    <path d="M228.314 511.081C228.314 480.156 253.384 455.085 284.31 455.085C315.236 455.085 340.306 480.156 340.306 511.081C340.306 542.007 315.236 567.078 284.31 567.078C253.384 567.078 228.314 542.007 228.314 511.081L228.314 511.081Z" id="Small-Wheel-2" fill="#FFB85B" fill-rule="evenodd" stroke="none" />
    <path d="M792.036 510.946C792.036 603.993 716.607 679.422 623.561 679.422C530.514 679.422 455.085 603.993 455.085 510.946C455.085 417.9 530.514 342.471 623.561 342.471C678.744 342.471 727.731 369.002 758.462 410.005L723.573 432.662C700.325 403.003 664.169 383.945 623.561 383.945C553.42 383.945 496.559 440.805 496.559 510.946C496.559 581.088 553.42 637.948 623.561 637.948C693.702 637.948 750.563 581.088 750.563 510.946C750.563 510.282 750.558 509.618 750.548 508.955L789.805 483.461C791.273 492.405 792.036 501.587 792.036 510.946Z" id="Big-Wheel-2-Subtract" fill="#C0252A" fill-rule="evenodd" stroke="none" />
    <path d="M127.64 61.3484L30.6742 61.3484C13.731 61.3484 0 47.6174 0 30.6742C0 13.731 13.731 -5.33016e-07 30.6742 0L150.45 4.73299e-06C156.06 4.73299e-06 161.318 1.50541 165.842 4.13436C173.605 7.96647 179.74 14.9968 182.158 24.0182L227.128 191.848L691.62 191.848C698.48 191.848 704.99 193.358 711.15 196.378C717.309 199.398 722.489 203.619 726.691 209.043C730.892 214.466 733.685 220.537 735.069 227.256C736.454 233.975 736.289 240.655 734.574 247.298L713.674 328.261C686.823 315.115 656.635 307.736 624.723 307.736C515.133 307.736 425.87 394.764 422.275 503.479L364.865 503.479C361.175 462.53 326.76 430.44 284.85 430.44C264.344 430.44 245.633 438.122 231.437 450.766L177.449 247.603C177.328 247.151 177.215 246.697 177.11 246.241C177.004 245.785 176.905 245.328 176.814 244.869L127.64 61.3484L127.64 61.3484Z" id="cart-frame-2" fill="#C0252A" fill-rule="evenodd" stroke="none" />
    <path d="M226.337 189.961L226.695 191.29L692.354 191.29C699.231 191.29 705.757 192.8 711.932 195.82C718.107 198.84 723.301 203.062 727.512 208.485C729.513 211.062 731.196 213.785 732.559 216.654C731.425 216.854 730.258 216.958 729.067 216.958L246.337 216.958C235.29 216.958 226.337 208.005 226.337 196.958L226.337 189.961Z" id="Cart-Line-Top-2" fill="#FFB85B" fill-rule="evenodd" stroke="none" />
    <path d="M895.915 384.858L636.86 554.924C633.664 557.021 630.167 557.863 626.368 557.45C622.566 557.036 619.331 555.46 616.662 552.724L549.096 483.447C547.617 481.931 546.485 480.189 545.699 478.222C544.913 476.256 544.533 474.214 544.56 472.096C544.586 469.979 545.017 467.947 545.851 466.001C546.687 464.055 547.861 462.342 549.378 460.863C552.536 457.784 556.32 456.272 560.729 456.327C565.139 456.382 568.883 457.989 571.962 461.146L577.677 467.005L630.335 520.998L832.238 388.453L878.385 358.158C882.072 355.738 886.074 354.975 890.393 355.871C894.711 356.766 898.08 359.057 900.5 362.744C901.662 364.515 902.44 366.44 902.837 368.52C903.232 370.601 903.215 372.678 902.786 374.752C902.356 376.825 901.546 378.737 900.357 380.488C899.165 382.24 897.685 383.696 895.915 384.858L895.915 384.858Z" id="Check-Mark" fill="#FFB85B" fill-rule="evenodd" stroke="none" />
    <path d="M1326.91 485.422C1338.56 485.422 1348 494.863 1348 506.514L1348 506.514C1348 518.165 1338.56 527.607 1326.91 527.607L867.092 527.607C855.442 527.607 846 518.165 846 506.514L846 506.514C846 494.863 855.442 485.422 867.092 485.422L1326.91 485.422Z" id="Rectangle-5-Copy" fill="#C0252A" stroke="none" />
    <path d="M1149.91 548.329C1161.56 548.329 1171 557.771 1171 569.422L1171 569.422C1171 581.072 1161.56 590.514 1149.91 590.514L851.092 590.514C839.441 590.514 830 581.072 830 569.422L830 569.422C830 557.771 839.441 548.329 851.092 548.329L1149.91 548.329Z" id="Rectangle-5-Copy-2" fill="#FFB85B" stroke="none" />
    <path d="M960.907 611.237C972.558 611.237 982 620.678 982 632.329L982 632.329C982 643.98 972.558 653.422 960.907 653.422L804.092 653.422C792.442 653.422 783 643.98 783 632.329L783 632.329C783 620.678 792.442 611.237 804.092 611.237L960.907 611.237Z" id="Rectangle-5-Copy-3" fill="#FFB85B" stroke="none" />
    <path d="M1075.91 611.237C1087.56 611.237 1097 620.678 1097 632.329L1097 632.329C1097 643.98 1087.56 653.422 1075.91 653.422L1021.09 653.422C1009.44 653.422 1000 643.98 1000 632.329L1000 632.329C1000 620.678 1009.44 611.237 1021.09 611.237L1075.91 611.237Z" id="Rectangle-5-Copy-4" fill="#FFB85B" stroke="none" />
  </g>
</svg>