<?xml version="1.0" encoding="utf-8"?>
<svg width="918.23267px" height="864.4219px" viewBox="0 0 918.23267 864.4219" version="1.1" xmlns:xlink="http://www.w3.org/1999/xlink" xmlns="http://www.w3.org/2000/svg">
  <g id="Group-8">
    <path d="M457.668 281.314L802.276 281.314C798.108 209.955 738.919 153.373 666.514 153.373C602.566 153.373 548.926 197.51 534.397 256.983C516.03 234.812 488.533 220.477 457.668 219.742L457.668 281.314ZM457.668 185.891C482.947 185.916 505.537 196.203 520.499 212.342C527.276 187.553 544.767 166.517 568.34 153.378C554.086 144.41 536.706 139.144 517.95 139.144C494.596 139.144 473.376 147.308 457.668 160.616L457.668 185.891Z" id="Sand-Subtract" fill="#FFB85B" fill-rule="evenodd" stroke="none" />
    <path d="M732.916 864.422C835.264 864.422 918.233 781.453 918.233 679.105C918.233 576.758 835.264 493.789 732.916 493.789C630.569 493.789 547.6 576.758 547.6 679.105C547.6 781.453 630.569 864.422 732.916 864.422L732.916 864.422ZM732.916 539.408C810.069 539.408 872.614 601.953 872.614 679.105C872.614 756.258 810.069 818.802 732.916 818.802C655.764 818.802 593.219 756.258 593.219 679.105C593.219 601.952 655.764 539.408 732.916 539.408L732.916 539.408Z" id="Big-Wheel" fill="#C0252A" fill-rule="evenodd" stroke="none" />
    <path d="M450.889 670.891L511.51 670.891C515.465 551.309 613.651 455.581 734.195 455.581C769.297 455.581 802.503 463.698 832.038 478.158L855.027 389.102C856.913 381.796 857.095 374.447 855.572 367.057C854.049 359.666 850.977 352.988 846.356 347.023C841.735 341.057 836.036 336.414 829.261 333.092C822.486 329.77 815.325 328.109 807.78 328.109L450.889 328.109L450.889 670.891Z" id="cart-frame-Subtract" fill="#C0252A" fill-rule="evenodd" stroke="none" />
    <path d="M450.034 355.729L850.969 355.729C851.629 355.729 852.281 355.697 852.924 355.635Q850.645 350.769 847.26 346.41C842.627 340.444 836.915 335.801 830.122 332.479C823.33 329.157 816.151 327.496 808.587 327.496L450.034 327.496L450.034 355.729Z" id="Cart-Line-Top-Subtract" fill="#FFB85B" fill-rule="evenodd" stroke="none" />
    <g id="Clock-Hand" transform="translate(703.7116 561.6631)">
      <path d="M22.5454 0C31.6103 0 38.9566 7.34632 38.9566 16.4112L38.9566 117.641C38.9566 126.706 31.6103 134.053 22.5454 134.053L22.5454 134.053C13.4805 134.053 6.13416 126.706 6.13416 117.641L6.13416 16.4112C6.13416 7.34632 13.4805 0 22.5454 0Z" id="Rectangle" fill="#FFB85B" stroke="none" />
      <path d="M11.6053 109.477C18.0156 103.067 28.4057 103.067 34.816 109.477L88.0071 162.668C94.4174 169.078 94.4174 179.468 88.0071 185.879L88.0071 185.879C81.5968 192.289 71.2067 192.289 64.7964 185.879L11.6053 132.688C5.19501 126.277 5.19501 115.887 11.6053 109.477Z" id="Rectangle-Copy" fill="#FFB85B" stroke="none" />
    </g>
    <path d="M425.426 18.666C425.426 8.35565 433.782 6.10352e-05 444.092 6.10352e-05L444.092 6.10352e-05C454.402 6.10352e-05 462.758 8.35565 462.758 18.666L462.758 845.056C462.758 855.367 454.402 863.722 444.092 863.722L444.092 863.722C433.782 863.722 425.426 855.367 425.426 845.056L425.426 18.666Z" id="Rectangle-5-Copy" fill="#FFB85B" stroke="none" />
    <path d="M366.035 461.548L305.436 461.548L305.436 400.461L244.349 400.461L244.349 461.548L305.436 461.548L305.436 522.635L244.349 522.635L244.349 583.723L305.436 583.723L305.436 644.81L244.349 644.81L244.349 705.897L305.436 705.897L305.436 644.81L366.035 644.81L366.035 583.723L305.436 583.723L305.436 522.635L366.035 522.635L366.035 461.548ZM0 339.374L0 156.112L183.262 156.112L183.262 339.374L0 339.374ZM244.349 217.199L244.349 156.112L305.436 156.112L305.436 217.199L244.349 217.199ZM122.175 217.199L61.0873 217.199L61.0873 278.286L122.175 278.286L122.175 217.199ZM244.349 339.374L244.349 278.286L305.436 278.286L305.436 339.374L244.349 339.374ZM0 461.548L0 400.461L61.0873 400.461L61.0873 461.548L0 461.548ZM122.175 461.548L122.175 400.461L183.262 400.461L183.262 461.548L122.175 461.548ZM0 705.897L0 522.635L183.262 522.635L183.262 705.897L0 705.897ZM122.175 583.723L61.0873 583.723L61.0873 644.81L122.175 644.81L122.175 583.723Z" id="Shape-Subtract" fill="#C0252A" fill-rule="evenodd" stroke="none" />
  </g>
</svg>